<?xml version="1.0" encoding="UTF-8"?>
<!DOCTYPE svg PUBLIC "-//W3C//DTD SVG 1.1//EN" "http://www.w3.org/Graphics/SVG/1.1/DTD/svg11.dtd">
<!-- Creator: CorelDRAW 2026 -->
<svg xmlns="http://www.w3.org/2000/svg" xml:space="preserve" width="8.5in" height="11in" version="1.1" style="shape-rendering:geometricPrecision; text-rendering:geometricPrecision; image-rendering:optimizeQuality; fill-rule:evenodd; clip-rule:evenodd"
viewBox="0 0 8500 11000"
 xmlns:xlink="http://www.w3.org/1999/xlink"
 xmlns:xodm="http://www.corel.com/coreldraw/odm/2003">
 <defs>
  <style type="text/css">
   <![CDATA[
    .str4 {stroke:blue;stroke-width:3.14;stroke-miterlimit:2.61313}
    .str9 {stroke:red;stroke-width:19.68;stroke-miterlimit:2.61313}
    .str3 {stroke:blue;stroke-width:3.58;stroke-miterlimit:2.61313}
    .str1 {stroke:blue;stroke-width:6.65;stroke-miterlimit:2.61313}
    .str6 {stroke:blue;stroke-width:6.66;stroke-miterlimit:2.61313}
    .str2 {stroke:gray;stroke-width:6.66;stroke-miterlimit:2.61313}
    .str5 {stroke:blue;stroke-width:7.87;stroke-miterlimit:2.61313}
    .str7 {stroke:gray;stroke-width:7.87;stroke-miterlimit:2.61313}
    .str8 {stroke:red;stroke-width:20;stroke-miterlimit:2.61313}
    .str0 {stroke:black;stroke-width:0.99;stroke-miterlimit:2.61313}
    .fil0 {fill:none}
    .fil4 {fill:none;fill-rule:nonzero}
    .fil2 {fill:blue}
    .fil1 {fill:blue}
    .fil3 {fill:blue;fill-rule:nonzero}
    .fil5 {fill:red;fill-rule:nonzero}
   ]]>
  </style>
 </defs>
 <g id="Layer_x0020_1">
  <metadata id="CorelCorpID_0Corel-Layer"/>
  <circle class="fil0 str0" transform="matrix(0.14797 0.295332 -0.259808 0.168202 2527.43 5082.39)" r="6.66"/>
  <path class="fil0 str1" d="M3362.5 6718.98c111.29,-72.05 256.95,-182.62 345.48,-286.91"/>
  <path class="fil0 str1" d="M3299.37 6622.19c-119.5,77.37 -244.2,134.81 -371.13,173.26"/>
  <path class="fil0 str1" d="M3627.57 6339.02c-95.69,108.05 -205.39,203.67 -328.2,283.18"/>
  <path class="fil0 str1" d="M2873.08 6664.96c-115.65,32.69 -233.12,48.36 -349.78,47.84"/>
  <path class="fil0 str1" d="M3539.76 6238.02c-88.09,99.53 -189.09,187.59 -302.19,260.8 -117.17,75.85 -239.76,130.89 -364.48,166.14"/>
  <path class="fil0 str1" d="M2512.29 6582.67c-113.73,-0.99 -225.96,-17.61 -332.52,-48.55"/>
  <path class="fil0 str1" d="M3460.35 6146.75c-86.66,103.38 -166.86,169.81 -281.63,244.11 -206.01,133.37 -439.22,193.79 -666.43,191.81"/>
  <path class="fil0 str1" d="M2206.41 6419.17c-101.56,-32.28 -199.67,-80.06 -291.81,-142.65"/>
  <path class="fil0 str1" d="M3384.34 6059.18c-80.44,97 -153.28,156.99 -260.49,226.4 -292.8,189.56 -619.88,228.17 -917.44,133.59"/>
  <path class="fil0 str1" d="M1956.45 6198.34c-84.38,-59.47 -162.75,-133.73 -232.67,-222.46"/>
  <path class="fil0 str1" d="M3321.54 5985.19c-73.32,87.67 -146.21,149.7 -243.43,212.64 -369.76,239.38 -791.74,233.02 -1121.66,0.52"/>
  <path class="fil0 str1" d="M1757.18 5902.25c-53.3,-65.51 -100.9,-138.91 -141.42,-219.78 -6.17,-12.32 -1.43,-2.04 -7.17,-14.49"/>
  <path class="fil0 str1" d="M3270.5 5928c-67.3,78.86 -140.02,142.08 -228.24,199.19 -430.81,278.91 -962.33,171.76 -1285.08,-224.95"/>
  <path class="fil0 str1" d="M1658.36 5615.1c-38.15,-81.72 -65.67,-160.01 -84.51,-252.93"/>
  <path class="fil0 str1" d="M3224.14 5874.59c-63.72,75.35 -131.04,133.64 -215,188 -470.07,304.33 -1071.48,119.99 -1335.9,-416.48 -5.13,-10.42 -10.09,-20.74 -14.88,-31"/>
  <path class="fil0 str1" d="M1634.1 5342.68c-19.15,-86.68 -27.41,-178.86 -24.89,-270.16"/>
  <path class="fil0 str1" d="M3178.51 5822.02c-59.06,69.33 -122.43,124.32 -199.93,174.5 -439.64,284.62 -999.02,110.23 -1249.41,-389.52 -43.9,-87.62 -75.38,-175.16 -95.07,-264.32"/>
  <path class="fil0 str1" d="M1669.19 5072.95c-0.35,-81.39 14.27,-173.83 34.76,-252.11"/>
  <path class="fil0 str1" d="M3135.5 5772.46c-54.65,63.65 -114.71,116 -186.09,162.22 -410.78,265.94 -933.44,102.99 -1167.39,-363.94 -81.93,-163.52 -118.67,-321.91 -113.22,-494.31"/>
  <path class="fil0 str1" d="M3092.61 5723.05c-51.39,60.37 -104.65,106.08 -172.11,149.76 -382.09,247.37 -868.24,95.8 -1085.86,-338.52 -114.37,-228.28 -134.44,-484.18 -70.94,-714.04"/>
  <path class="fil0 str1" d="M1759.02 4837.82c18.39,-66.58 41.48,-147.92 80.64,-209.48"/>
  <path class="fil0 str1" d="M3049.53 5673.4c-46.77,54.2 -96.34,96.83 -157.25,136.27 -353.64,228.95 -803.61,88.67 -1005.02,-313.33 -140.6,-280.63 -126.78,-610.33 15.65,-862.81"/>
  <path class="fil0 str1" d="M1888.56 4660.1c22.9,-47.78 63.69,-116.6 122.16,-175.64"/>
  <path class="fil0 str1" d="M3015.02 5633.64c-44.78,52.43 -91.64,92.72 -150.37,130.74 -331.5,214.61 -751.79,86.12 -938.73,-287 -165.28,-329.87 -92.83,-740.51 155.25,-979.58"/>
  <path class="fil0 str1" d="M2982.46 5596.12c-40.48,46.7 -84.83,85.19 -137.43,119.24 -307.82,199.28 -699.49,77.18 -874.8,-272.73 -175.31,-349.92 -67.9,-795.13 239.93,-994.42 12.39,-8.03 24.72,-15.47 37.07,-22.37"/>
  <path class="fil0 str1" d="M2210.15 4448.22c50.5,-28.23 101.5,-56.43 155.46,-72.1"/>
  <path class="fil0 str1" d="M2952.1 5561.14c-37.9,43.97 -79.05,79.66 -128.42,111.62 -287.13,185.88 -653.02,70.86 -817.24,-256.91 -164.22,-327.77 -64.6,-744.18 222.53,-930.07 59.72,-38.67 121.06,-64.35 183.68,-77.81"/>
  <path class="fil0 str1" d="M2380.45 4416.01c43.4,-12.78 113.18,-20.28 154.36,-19.02"/>
  <path class="fil0 str1" d="M2924.1 5528.88c-34.78,39.56 -72.26,71.72 -117.07,100.73 -269.41,174.42 -612.2,67.56 -765.63,-238.69 -153.43,-306.24 -59.42,-695.9 209.99,-870.31 99.75,-64.58 208.14,-91.05 313.92,-82.91"/>
  <path class="fil0 str1" d="M2534.28 4436.32c38.35,2.04 107.74,11.72 145.27,23.98"/>
  <path class="fil0 str1" d="M2898.22 5498.7c-32.71,37.46 -68.4,68.3 -110.72,95.69 -251.07,162.54 -570.52,62.95 -713.52,-222.46 -142.99,-285.4 -55.38,-648.54 195.69,-811.08 135.3,-87.6 288.41,-100.43 424.29,-48.26"/>
  <path class="fil0 str1" d="M2669 4503.82c35.93,11.2 93.46,38.1 123.79,59.23"/>
  <path class="fil0 str1" d="M2868.22 5464.51c-29.83,33.72 -62.31,61.61 -100.65,86.43 -231.16,149.66 -524.33,59.85 -654.81,-200.57 -130.48,-260.43 -48.87,-592.87 182.29,-742.53 160.83,-104.13 349.96,-94.3 494.56,9.56"/>
  <path class="fil0 str1" d="M2774.84 4607.22c25.74,17.39 71.59,56.11 97.76,86.09"/>
  <path class="fil0 str2" d="M2854.32 4752.99c18.2,23.69 34.68,49.73 49.08,78.03"/>
  <path class="fil0 str1" d="M2838.31 5429.29c-28.27,33.35 -57.84,58.86 -95.06,82.95 -209.13,135.39 -475.22,52.44 -594.33,-185.28 -119.11,-237.72 -46.13,-540.2 163,-675.59 183.24,-118.63 409.15,-71.72 542.4,101.64"/>
  <path class="fil0 str2" d="M2880.01 4872.11c13.02,28.07 22.78,55.95 30.06,85.87"/>
  <path class="fil0 str1" d="M2809.3 5396.05c-25.05,29.09 -52.47,52.95 -85.08,74.07 -190.02,123.02 -431.4,48.44 -539.13,-166.58 -107.73,-215.02 -41.02,-489.06 149,-612.09 190.02,-123.02 431.39,-48.44 539.13,166.58 2.36,4.7 4.62,9.4 6.8,14.08"/>
  <path class="fil0 str2" d="M2871.81 4985.55c6.21,30.3 9.21,61.08 9.15,92.27"/>
  <path class="fil0 str1" d="M2777.41 5359.52c-22.17,25.69 -46.05,46.41 -74.78,65 -168.69,109.22 -382.69,43.57 -477.97,-146.6 -95.28,-190.18 -35.78,-432.89 132.91,-542.1 168.69,-109.21 382.69,-43.57 477.98,146.61 16.83,33.6 28.84,68.02 36.26,103.13"/>
  <path class="fil0 str2" d="M2837.86 5085.34c-0.38,26.95 -3.56,53.78 -9.44,80.11"/>
  <path class="fil0 str1" d="M2749.46 5327.4c-20.41,24.49 -42.83,44.44 -69.6,61.78 -149.66,96.89 -340.08,37.52 -425.31,-132.59 -85.23,-170.12 -33,-386.57 116.65,-483.47 149.66,-96.89 340.08,-37.52 425.31,132.59 28.8,57.47 42.2,118.83 41.35,179.63"/>
  <path class="fil0 str2" d="M2788.45 5166.87c-5.89,22.85 -14.15,45 -24.69,65.99"/>
  <path class="fil0 str1" d="M2722.46 5295.66c-18.3,22.15 -37.87,39.61 -61.71,55.04 -130.93,84.76 -297.53,32.83 -372.09,-116 -74.57,-148.84 -28.88,-338.21 102.05,-422.97 130.93,-84.77 297.53,-32.83 372.1,116 38.22,76.28 45.57,161.76 25.65,239.14"/>
  <path class="fil0 str1" d="M2698.2 5268.61c-16.14,19.43 -33.88,35.43 -54.7,48.92 -114.93,74.41 -261.16,28.81 -326.62,-101.83 -65.46,-130.64 -25.35,-296.87 89.58,-371.28 114.93,-74.41 261.17,-28.82 326.62,101.82 47.41,94.63 40.84,205.65 -10.84,289.19"/>
  <circle class="fil0 str3" transform="matrix(0.240882 0.480774 -0.42295 0.273821 2527.59 5081.8)" r="430.55"/>
  <circle class="fil0 str4" transform="matrix(0.211616 0.422363 -0.371564 0.240554 2527.59 5081.8)" r="430.55"/>
  <line class="fil0 str5" x1="2596.31" y1="5151.21" x2="3707.97" y2= "6432.06" />
  <polyline class="fil0 str6" points="2575.16,5166.21 2968.83,5942.6 3362.5,6718.98 "/>
  <line class="fil0 str6" x1="2555.12" y1="5176.58" x2="2928.08" y2= "6795.5" />
  <line class="fil0 str6" x1="2532.99" y1="5180.48" x2="2523.11" y2= "6712.84" />
  <line class="fil0 str6" x1="2512.22" y1="5175.67" x2="2179.76" y2= "6534.13" />
  <line class="fil0 str6" x1="2492.83" y1="5162.15" x2="1914.59" y2= "6276.51" />
  <line class="fil0 str6" x1="2474.56" y1="5143.99" x2="1723.31" y2= "5975.94" />
  <line class="fil0 str6" x1="2461.11" y1="5124.02" x2="1608.59" y2= "5667.97" />
  <line class="fil0 str6" x1="2451.5" y1="5100.25" x2="1573.85" y2= "5362.17" />
  <line class="fil0 str6" x1="2449.43" y1="5075.52" x2="1609.46" y2= "5076.5" />
  <line class="fil0 str6" x1="2452.3" y1="5051.49" x2="1703.96" y2= "4820.85" />
  <line class="fil0 str6" x1="2459.26" y1="5028.74" x2="1841.23" y2= "4629.53" />
  <line class="fil0 str6" x1="2475.84" y1="5011.48" x2="2010.71" y2= "4484.46" />
  <line class="fil0 str6" x1="2492.55" y1="4996.75" x2="2191.41" y2= "4410.8" />
  <line class="fil0 str7" x1="2739.41" y1="5216.24" x2="2765.74" y2= "5234.87" />
  <line class="fil0 str7" x1="2614.4" y1="5127.78" x2="2739.41" y2= "5216.24" />
  <line class="fil0 str7" x1="2618.01" y1="5100.67" x2="2828.38" y2= "5165.63" />
  <line class="fil0 str7" x1="2618.54" y1="5074.24" x2="2880.64" y2= "5074.63" />
  <line class="fil0 str6" x1="2510.6" y1="4991.59" x2="2365.61" y2= "4376.11" />
  <line class="fil0 str6" x1="2532.12" y1="4984.17" x2="2534.43" y2= "4395.89" />
  <line class="fil0 str7" x1="2617.46" y1="5051.48" x2="2909.87" y2= "4957.92" />
  <line class="fil0 str6" x1="2552.14" y1="4992.07" x2="2679.37" y2= "4460.5" />
  <line class="fil0 str6" x1="2790.67" y1="4564.55" x2="2570.91" y2= "5002.08" />
  <line class="fil0 str7" x1="2872.28" y1="4693.78" x2="2584.75" y2= "5011.38" />
  <line class="fil0 str7" x1="2903.4" y1="4831.02" x2="2591.39" y2= "5038.37" />
  <path class="fil0 str8" d="M2572.29 5122.03c14.48,-39.3 27.13,-65.18 17.76,-107.21 -1.84,-8.24 -4.58,-16.76 -7.72,-24.17 -27.16,-64.14 -85.73,-70.85 -133.29,-24.15 -23.93,23.49 -42.01,72.44 -42.67,108.26 -0.96,51.28 22.34,100.11 57.01,134 63.58,62.16 155.22,77.02 231.98,35.31 15.37,-8.35 29.7,-17.73 43.06,-28.24"/>
  <path class="fil0 str8" d="M2738.41 5215.83c86.76,-92.81 75.07,-76.58 0,0z"/>
  <g id="_2032397526304">
   <path id="_1" class="fil1 str9" d="M2898.01 5279.78l-400.41 149.9 1.23 -1.28c370.48,462.05 0.29,1066.7 -249.69,1467.02 566.52,-457.93 799.39,-1008.23 648.87,-1615.63z"/>
  </g>
  <path class="fil0 str1" d="M2054.2 4525.2c31.42,-47.36 81.65,-80.58 133.46,-112 2.51,-1.53 1.27,-0.82 3.75,-2.39"/>
  <path class="fil0 str8" d="M2790.82 5162.42c1.65,-2.24 3.27,-4.53 4.88,-6.87 60.74,-88.22 95.5,-192.89 81.26,-302.89 -4.33,-33.47 -11.12,-65.9 -24.38,-101.31 -27.55,-73.57 -64.15,-144.76 -115.32,-197.4 -28.38,-29.19 -70.8,-61.27 -104.64,-81.37 -51.7,-30.7 -117.5,-47.62 -174.24,-57.04 -36.49,-6.06 -63.68,-5.9 -97.74,-4.7 -35.81,1.26 -49.15,3.18 -86.24,11.01 -15.74,3.32 -30.13,6.64 -47.02,12.22 -96.31,31.79 -223.56,107.77 -300.17,178.46 -56.41,52.05 -119.11,133.8 -158.74,202.06 -28.48,49.04 -36.08,67.5 -56.81,121.27 -26.66,69.18 -43.13,121.73 -59.09,202.52 -14.91,75.44 -17.66,132.74 -18.89,204.58 -0.48,28.41 -0.58,50.34 0.85,73.43 3.54,56.91 14.42,155.98 26.94,212.86 4.79,21.78 10.93,48.58 16.75,70.44 33.35,125.3 104.4,249.24 135.93,303.35 40.2,69 96.02,142.74 146.4,199.87 70.68,80.13 131.45,133.03 214.92,194.32 35.17,25.83 75.36,53.23 113.91,75.5 71.65,41.41 157.47,85.43 233.94,115.53 69.24,27.26 171.31,52.83 242.59,62.97 19.55,2.78 37.44,4.92 60.71,7.87 79.49,10.07 141.85,15.62 220.81,9.95 54.79,-3.93 106.62,-13.67 160.76,-23.66 41.65,-7.69 72.39,-14.91 117.08,-26.9 96.54,-25.9 162.96,-58.14 254.54,-104.32 39.24,-19.79 73.87,-42.57 97.18,-56.82l36.52 -22.91"/>
  <circle class="fil0 str0" transform="matrix(0.14797 0.295332 -0.259808 0.168202 2527.43 5082.39)" r="6.66"/>
  <path class="fil0 str1" d="M2840.04 4735.3c18.2,23.69 48.97,67.42 63.37,95.72"/>
  <path class="fil0 str1" d="M2873.21 4858.03c13.02,28.07 29.57,70.03 36.86,99.95"/>
  <path class="fil0 str1" d="M2868.5 4971.15c6.21,30.3 12.52,75.46 12.46,106.66"/>
  <path class="fil0 str1" d="M2837.86 5074.57c-0.38,26.95 -3.56,64.55 -9.44,90.88"/>
  <path class="fil0 str1" d="M2788.45 5166.87c-5.89,22.85 -14.15,45 -24.69,65.99"/>
  <line class="fil0 str6" x1="2739.41" y1="5216.24" x2="2765.74" y2= "5234.87" />
  <line class="fil0 str5" x1="2614.4" y1="5127.78" x2="2739.41" y2= "5216.24" />
  <line class="fil0 str6" x1="2618.01" y1="5100.67" x2="2828.38" y2= "5165.63" />
  <line class="fil0 str6" x1="2618.54" y1="5074.24" x2="2880.64" y2= "5074.63" />
  <line class="fil0 str6" x1="2617.46" y1="5051.48" x2="2909.87" y2= "4957.92" />
  <line class="fil0 str6" x1="2872.28" y1="4693.78" x2="2584.75" y2= "5011.38" />
  <line class="fil0 str6" x1="2903.4" y1="4831.02" x2="2591.39" y2= "5038.37" />
  <circle class="fil2 str9" cx="2557.65" cy="5057.28" r="213.74"/>
  <polygon class="fil3" points="3096.4,5276.05 3314.04,5276.05 3597.02,5917.11 3597.02,5276.05 3817.29,5276.05 3817.29,6437.11 3597.02,6437.11 3315.62,5799.56 3315.62,6437.11 3096.4,6437.11 "/>
  <path id="_1_0" class="fil3" d="M4474.93 5961.98l204.46 94.86c-13.7,88.1 -35.31,161.89 -64.99,220.81 -29.51,59.19 -66.04,103.78 -109.96,133.78 -43.74,30 -99.42,45.13 -167.04,45.13 -82.21,0 -149.13,-18.38 -201.3,-54.87 -52,-36.76 -96.79,-101.35 -134.55,-193.51 -37.76,-92.16 -56.74,-210.54 -56.74,-354.31 0,-191.89 33.2,-339.44 99.59,-442.69 66.57,-102.97 160.55,-154.59 282.1,-154.59 95.03,0 169.85,29.46 224.31,88.65 54.28,59.19 94.86,150 121.2,272.69l-205.52 70c-7.2,-35.13 -14.75,-60.81 -22.65,-77.02 -13.17,-27.3 -29.15,-48.38 -47.95,-62.97 -18.97,-14.87 -40.05,-22.16 -63.41,-22.16 -53.05,0 -93.63,32.7 -121.73,97.83 -21.26,48.38 -31.97,124.59 -31.97,228.1 0,128.65 12.65,216.48 38.12,264.32 25.47,47.56 61.12,71.34 107.15,71.34 44.61,0 78.34,-19.19 101.17,-57.83 22.84,-38.38 39.35,-94.32 49.72,-167.56l-0.01 0z"/>
  <polygon id="_2" class="fil3" points="4791.98,5276.05 5415.91,5276.05 5415.91,5524.15 5025.96,5524.15 5025.96,5709.01 5387.46,5709.01 5387.46,5945.76 5025.96,5945.76 5025.96,6174.41 5427.51,6174.41 5427.51,6437.11 4791.98,6437.11 "/>
  <path id="_3" class="fil3" d="M5513.05 6053.06l221.33 -21.35c4.74,55.13 14.58,97.3 29.33,125.94 24.06,46.76 58.31,70.27 102.93,70.27 33.2,0 58.84,-11.89 76.76,-35.95 18.09,-24.05 27.05,-51.89 27.05,-83.51 0,-30 -8.43,-57.02 -25.47,-80.81 -17.04,-23.78 -56.74,-45.94 -119.09,-67.3 -102.23,-35.13 -174.96,-82.16 -218.52,-140.81 -43.91,-58.38 -65.87,-132.97 -65.87,-223.78 0,-59.45 11.24,-115.67 33.73,-168.64 22.48,-53.24 56.21,-94.86 101.35,-125.14 45.14,-30.27 106.97,-45.4 185.49,-45.4 96.44,0 169.86,27.56 220.45,82.97 50.59,55.13 80.63,142.96 90.28,263.51l-219.22 20c-5.8,-52.7 -18.09,-91.07 -36.71,-114.86 -18.8,-24.06 -44.62,-35.95 -77.46,-35.95 -27.05,0 -47.6,8.92 -61.3,26.48 -13.7,17.57 -20.55,39.19 -20.55,64.6 0,18.38 5.62,34.86 16.69,49.73 10.71,15.41 36.71,29.46 77.81,42.7 101.88,33.78 174.78,68.11 218.69,102.7 44.09,34.59 76.23,77.3 96.25,128.65 20.02,51.08 30.04,108.38 30.04,171.89 0,74.32 -13.36,142.96 -40.05,205.94 -26.88,62.7 -64.12,110.54 -112.24,142.96 -47.95,32.43 -108.38,48.65 -181.45,48.65 -128.23,0 -217.11,-38.11 -266.47,-114.05 -49.36,-75.94 -77.29,-172.43 -83.79,-289.45l-0.01 -0z"/>
  <path id="_4" class="fil3" d="M6778.46 6245.76l-264.19 0 -37.94 191.35 -238.01 0 284.04 -1161.06 255.23 0 282.8 1161.06 -244.16 0 -37.76 -191.35 -0.01 0zm-49.36 -251.35l-82.38 -417.29 -82.73 417.29 165.11 0 -0 0z"/>
  <polygon id="_5" class="fil4 str9" points="3096.4,5276.05 3314.04,5276.05 3597.02,5917.11 3597.02,5276.05 3817.29,5276.05 3817.29,6437.11 3597.02,6437.11 3315.62,5799.56 3315.62,6437.11 3096.4,6437.11 "/>
  <path id="_6" class="fil4 str9" d="M4474.93 5961.98l204.46 94.86c-13.7,88.1 -35.31,161.89 -64.99,220.81 -29.51,59.19 -66.04,103.78 -109.96,133.78 -43.74,30 -99.42,45.13 -167.04,45.13 -82.21,0 -149.13,-18.38 -201.3,-54.87 -52,-36.76 -96.79,-101.35 -134.55,-193.51 -37.76,-92.16 -56.74,-210.54 -56.74,-354.31 0,-191.89 33.2,-339.44 99.59,-442.69 66.57,-102.97 160.55,-154.59 282.1,-154.59 95.03,0 169.85,29.46 224.31,88.65 54.28,59.19 94.86,150 121.2,272.69l-205.52 70c-7.2,-35.13 -14.75,-60.81 -22.65,-77.02 -13.17,-27.3 -29.15,-48.38 -47.95,-62.97 -18.97,-14.87 -40.05,-22.16 -63.41,-22.16 -53.05,0 -93.63,32.7 -121.73,97.83 -21.26,48.38 -31.97,124.59 -31.97,228.1 0,128.65 12.65,216.48 38.12,264.32 25.47,47.56 61.12,71.34 107.15,71.34 44.61,0 78.34,-19.19 101.17,-57.83 22.84,-38.38 39.35,-94.32 49.72,-167.56l-0.01 0z"/>
  <polygon id="_7" class="fil4 str9" points="4791.98,5276.05 5415.91,5276.05 5415.91,5524.15 5025.96,5524.15 5025.96,5709.01 5387.46,5709.01 5387.46,5945.76 5025.96,5945.76 5025.96,6174.41 5427.51,6174.41 5427.51,6437.11 4791.98,6437.11 "/>
  <path id="_8" class="fil4 str9" d="M5513.05 6053.06l221.33 -21.35c4.74,55.13 14.58,97.3 29.33,125.94 24.06,46.76 58.31,70.27 102.93,70.27 33.2,0 58.84,-11.89 76.76,-35.95 18.09,-24.05 27.05,-51.89 27.05,-83.51 0,-30 -8.43,-57.02 -25.47,-80.81 -17.04,-23.78 -56.74,-45.94 -119.09,-67.3 -102.23,-35.13 -174.96,-82.16 -218.52,-140.81 -43.91,-58.38 -65.87,-132.97 -65.87,-223.78 0,-59.45 11.24,-115.67 33.73,-168.64 22.48,-53.24 56.21,-94.86 101.35,-125.14 45.14,-30.27 106.97,-45.4 185.49,-45.4 96.44,0 169.86,27.56 220.45,82.97 50.59,55.13 80.63,142.96 90.28,263.51l-219.22 20c-5.8,-52.7 -18.09,-91.07 -36.71,-114.86 -18.8,-24.06 -44.62,-35.95 -77.46,-35.95 -27.05,0 -47.6,8.92 -61.3,26.48 -13.7,17.57 -20.55,39.19 -20.55,64.6 0,18.38 5.62,34.86 16.69,49.73 10.71,15.41 36.71,29.46 77.81,42.7 101.88,33.78 174.78,68.11 218.69,102.7 44.09,34.59 76.23,77.3 96.25,128.65 20.02,51.08 30.04,108.38 30.04,171.89 0,74.32 -13.36,142.96 -40.05,205.94 -26.88,62.7 -64.12,110.54 -112.24,142.96 -47.95,32.43 -108.38,48.65 -181.45,48.65 -128.23,0 -217.11,-38.11 -266.47,-114.05 -49.36,-75.94 -77.29,-172.43 -83.79,-289.45l-0.01 -0z"/>
  <path id="_9" class="fil4 str9" d="M6778.46 6245.76l-264.19 0 -37.94 191.35 -238.01 0 284.04 -1161.06 255.23 0 282.8 1161.06 -244.16 0 -37.76 -191.35 -0.01 0zm-49.36 -251.35l-82.38 -417.29 -82.73 417.29 165.11 0 -0 0z"/>
  <path class="fil3" d="M3183.68 4598.42l0 73.54c0,3.28 0.79,5.77 2.36,7.54 1.57,1.83 4.26,3.17 8.08,4.17l0 5.33 -70.02 0 0 -5.33c3.93,-1.11 6.62,-2.5 8.13,-4.22 1.52,-1.72 2.3,-4.22 2.3,-7.49l0 -187.87c0,-3.38 -0.79,-5.94 -2.3,-7.66 -1.52,-1.72 -4.2,-3.17 -8.13,-4.22l0 -5.33 140.5 0c17.12,0 30.69,1 40.74,2.94 10.04,1.95 18.8,5.39 26.26,10.27 8.64,5.66 15.09,13.32 19.41,22.98 4.04,9.33 6.06,19.31 6.06,29.97 0,36.3 -20.37,57.5 -61.04,63.72l43.59 61.1c7.63,10.71 13.24,17.59 16.83,20.7 3.6,3.05 7.91,4.77 13.07,5.11l0 5.33 -81.2 0 0 -5.33c5.56,-0.89 8.37,-2.83 8.37,-5.83 0,-1.94 -2.59,-6.66 -7.75,-14.15l-45.73 -65.27 -59.54 0 -0 0zm0 -36.63l75.69 0c11.17,0 19.08,-0.33 23.68,-1 4.6,-0.61 8.87,-2 12.68,-4.06 8.36,-4.44 12.52,-12.48 12.52,-24.09 0,-11.6 -4.15,-19.65 -12.52,-24.09 -3.93,-2.17 -8.14,-3.55 -12.57,-4.16 -4.43,-0.61 -12.39,-0.89 -23.79,-0.89l-75.69 0 0 58.28 -0 0.01z"/>
  <path id="_1_1" class="fil3" d="M3455.93 4591.43l0 60.94 144.04 0c3.31,0 5.84,-0.78 7.57,-2.28 1.74,-1.5 3.2,-4.16 4.26,-8.05l5.39 0 0 57.28 -5.39 0c-1.07,-3.89 -2.52,-6.55 -4.26,-8.05 -1.73,-1.5 -4.26,-2.28 -7.57,-2.28l-203.63 0 0 -5.33c3.93,-1.11 6.62,-2.5 8.13,-4.22 1.52,-1.72 2.3,-4.27 2.3,-7.66l0 -187.71c0,-3.38 -0.78,-5.94 -2.3,-7.66 -1.52,-1.72 -4.2,-3.17 -8.13,-4.22l0 -5.33 199.59 0c3.31,0 5.83,-0.78 7.57,-2.28 1.74,-1.56 3.2,-4.22 4.26,-8.05l5.39 0 0 57.28 -5.39 0c-1.07,-3.82 -2.52,-6.49 -4.26,-8.05 -1.74,-1.5 -4.26,-2.28 -7.52,-2.28l-140.05 0 0 52.61 90.9 0c3.25,0 5.78,-0.78 7.52,-2.28 1.74,-1.5 3.2,-4.16 4.26,-8.05l5.39 0 0 55.95 -5.39 0c-1.07,-3.77 -2.52,-6.44 -4.26,-7.99 -1.73,-1.55 -4.26,-2.33 -7.52,-2.33l-90.9 0 -0 -0z"/>
  <path id="_2_2" class="fil3" d="M3860.94 4485.53l-26.77 52.23 -4.6 -2.61c0.11,-1.06 0.17,-1.95 0.17,-2.61 0,-3.66 -3.2,-7.66 -9.54,-11.88 -19.53,-13.43 -42.42,-20.14 -68.74,-20.14 -11.61,0 -21.89,1.39 -30.8,4.22 -6.46,2.22 -11.67,5.44 -15.71,9.83 -3.98,4.33 -6,9.04 -6,14.15 0,8.38 5.11,14.1 15.26,17.1 5.28,1.56 16.56,3.17 33.9,4.94l25.81 2.61c15.31,1.61 27.78,3.82 37.26,6.66 9.48,2.83 17.85,6.77 25.19,11.88 7.46,5.33 13.36,12.32 17.68,20.98 4.32,8.71 6.51,17.98 6.51,27.86 0,15.6 -5.11,29.53 -15.26,41.68 -9.2,11.05 -23.51,19.26 -42.92,24.53 -14.48,4.05 -29.96,6.05 -46.52,6.05 -29.69,0 -58.98,-7.05 -87.93,-21.09 -6.11,-2.83 -9.76,-4.22 -11,-4.22 -1.4,0 -3.65,1.22 -6.73,3.55l-4.77 -2.39 24.35 -54.45 4.77 2.28c0,0.94 0,1.67 0,2.11 0,4.89 2.36,9.38 7.02,13.49 7.13,6.27 18.18,11.7 33.05,16.26 14.93,4.55 29.06,6.83 42.42,6.83 14.59,0 27.04,-2.44 37.31,-7.33 5.72,-2.72 10.27,-6.33 13.64,-10.82 3.43,-4.5 5.11,-9.22 5.11,-14.09 0,-7.38 -3.98,-12.65 -12.01,-15.82 -5.61,-2.17 -16.89,-4.16 -33.9,-6l-25.36 -2.61c-16.94,-1.77 -29.01,-3.44 -36.02,-4.99 -7.02,-1.56 -14.02,-4.11 -21.04,-7.61 -9.99,-4.89 -17.85,-12.21 -23.51,-21.98 -5.17,-8.82 -7.75,-18.93 -7.75,-30.3 0,-18.81 6.51,-34.35 19.58,-46.62 17.12,-16.21 42.81,-24.31 77.09,-24.31 14.31,0 27.72,1.44 40.06,4.33 12.4,2.89 27.83,8.16 46.4,15.87 6.34,2.5 10.21,3.72 11.67,3.72 2.3,0 4.94,-1.22 8.03,-3.72l4.6 2.44 0.01 -0z"/>
  <path id="_3_3" class="fil3" d="M3954.2 4591.43l0 60.94 144.04 0c3.31,0 5.83,-0.78 7.57,-2.28 1.74,-1.5 3.2,-4.16 4.26,-8.05l5.38 0 0 57.28 -5.38 0c-1.07,-3.89 -2.52,-6.55 -4.26,-8.05 -1.74,-1.5 -4.26,-2.28 -7.57,-2.28l-203.63 0 0 -5.33c3.93,-1.11 6.62,-2.5 8.14,-4.22 1.52,-1.72 2.3,-4.27 2.3,-7.66l0 -187.71c0,-3.38 -0.78,-5.94 -2.3,-7.66 -1.52,-1.72 -4.21,-3.17 -8.14,-4.22l0 -5.33 199.59 0c3.31,0 5.83,-0.78 7.57,-2.28 1.73,-1.56 3.19,-4.22 4.26,-8.05l5.39 0 0 57.28 -5.39 0c-1.07,-3.82 -2.52,-6.49 -4.26,-8.05 -1.74,-1.5 -4.26,-2.28 -7.52,-2.28l-140.05 0 0 52.61 90.9 0c3.25,0 5.78,-0.78 7.52,-2.28 1.74,-1.5 3.2,-4.16 4.26,-8.05l5.39 0 0 55.95 -5.39 0c-1.07,-3.77 -2.52,-6.44 -4.26,-7.99 -1.74,-1.55 -4.26,-2.33 -7.52,-2.33l-90.9 0 -0 -0z"/>
  <path id="_4_4" class="fil3" d="M4314.04 4632.06l-101.22 0 -15.26 31.36c-2.07,4.39 -3.14,7.77 -3.14,10.27 0,4.83 3.7,8.16 11.05,9.99l0 5.33 -74.23 0 0 -5.33c4.37,-0.89 7.74,-2.39 10.04,-4.55 2.3,-2.17 4.94,-6.38 7.85,-12.65l82.55 -170.5c2.63,-5.43 3.93,-9.77 3.93,-13.04 0,-4.99 -3.14,-8.55 -9.54,-10.71l0 -5.33 79.57 0 0 5.33c-6.51,1.83 -9.71,5.06 -9.71,9.6 0,3.11 1.01,6.72 3.09,10.71l85.4 171c3.65,7.27 6.79,12.21 9.54,14.87 2.74,2.67 6.4,4.39 11,5.28l0 5.33 -82.82 0 0 -5.33c7.24,-1.22 10.83,-4.55 10.83,-10.1 0,-2.33 -1.12,-5.72 -3.31,-10.16l-15.6 -31.36 -0 -0zm-14.02 -30.3l-36.02 -78.42 -36.7 78.42 72.72 0z"/>
  <path id="_5_5" class="fil3" d="M4483.89 4598.42l0 73.54c0,3.28 0.79,5.77 2.36,7.54 1.57,1.83 4.26,3.17 8.08,4.17l0 5.33 -70.02 0 0 -5.33c3.93,-1.11 6.62,-2.5 8.13,-4.22 1.52,-1.72 2.3,-4.22 2.3,-7.49l0 -187.87c0,-3.38 -0.78,-5.94 -2.3,-7.66 -1.52,-1.72 -4.2,-3.17 -8.13,-4.22l0 -5.33 140.5 0c17.12,0 30.69,1 40.74,2.94 10.04,1.95 18.8,5.39 26.26,10.27 8.64,5.66 15.09,13.32 19.41,22.98 4.04,9.33 6.06,19.31 6.06,29.97 0,36.3 -20.37,57.5 -61.04,63.72l43.59 61.1c7.63,10.71 13.24,17.59 16.83,20.7 3.59,3.05 7.91,4.77 13.07,5.11l0 5.33 -81.2 0 0 -5.33c5.56,-0.89 8.36,-2.83 8.36,-5.83 0,-1.94 -2.58,-6.66 -7.74,-14.15l-45.73 -65.27 -59.54 0 -0 0zm0 -36.63l75.69 0c11.17,0 19.08,-0.33 23.68,-1 4.6,-0.61 8.87,-2 12.68,-4.06 8.36,-4.44 12.52,-12.48 12.52,-24.09 0,-11.6 -4.15,-19.65 -12.52,-24.09 -3.93,-2.17 -8.14,-3.55 -12.57,-4.16 -4.43,-0.61 -12.39,-0.89 -23.79,-0.89l-75.69 0 0 58.28 -0 0.01z"/>
  <path id="_6_6" class="fil3" d="M4909.76 4612.91l31.3 46.29 -4.26 2.94c-3.09,-2.83 -5.61,-4.22 -7.57,-4.22 -1.97,0 -7.52,2.55 -16.61,7.77 -18.85,10.71 -34.74,17.98 -47.65,21.7 -12.91,3.72 -28.22,5.61 -46.02,5.61 -35.41,0 -64.47,-8.33 -87.2,-24.92 -13.36,-9.66 -23.91,-21.65 -31.59,-35.97 -8.87,-16.42 -13.3,-34.46 -13.3,-54.28 0,-26.92 7.96,-50.28 23.84,-70.15 23.91,-29.86 60.04,-44.79 108.41,-44.79 17.78,0 33.05,1.83 45.79,5.56 12.68,3.66 28.62,10.93 47.7,21.75 9.09,5.11 14.64,7.61 16.61,7.61 1.97,0 4.49,-1.39 7.57,-4.22l4.26 2.94 -31.3 46.34 -4.43 -2.94c0.22,-1.72 0.34,-3.17 0.34,-4.39 0,-3.11 -1.35,-6.05 -4.1,-8.82 -2.74,-2.78 -7.63,-6.11 -14.7,-9.99 -19.41,-10.82 -40.01,-16.2 -61.72,-16.2 -25.7,0 -46.18,6.38 -61.44,19.09 -18.01,14.87 -26.99,34.3 -26.99,58.33 0,24.03 8.98,43.46 26.99,58.33 15.26,12.71 35.74,19.09 61.44,19.09 21.72,0 42.31,-5.43 61.72,-16.26 7.06,-3.89 11.95,-7.22 14.7,-9.99 2.75,-2.78 4.1,-5.72 4.1,-8.88 0,-1.17 -0.12,-2.61 -0.34,-4.22l4.43 -3.11 0.01 0z"/>
  <path id="_7_7" class="fil3" d="M5160.24 4592.09l-129.28 0 0 79.87c0,3.28 0.79,5.77 2.35,7.54 1.57,1.83 4.26,3.17 8.08,4.17l0 5.33 -70.02 0 0 -5.33c3.93,-1.11 6.62,-2.5 8.14,-4.22 1.52,-1.72 2.3,-4.22 2.3,-7.49l0 -188.04c0,-3.28 -0.78,-5.77 -2.3,-7.49 -1.52,-1.72 -4.21,-3.17 -8.14,-4.22l0 -5.33 70.02 0 0 5.33c-3.93,1 -6.62,2.33 -8.13,4.17 -1.51,1.77 -2.3,4.27 -2.3,7.54l0 71.54 129.28 0 0 -71.54c0,-3.28 -0.78,-5.77 -2.3,-7.54 -1.52,-1.83 -4.2,-3.17 -8.13,-4.17l0 -5.33 70.02 0 0 5.33c-3.93,1.06 -6.62,2.5 -8.13,4.22 -1.51,1.72 -2.3,4.22 -2.3,7.49l0 188.04c0,3.28 0.79,5.77 2.3,7.49 1.52,1.72 4.21,3.11 8.13,4.22l0 5.33 -70.02 0 0 -5.33c3.82,-1 6.51,-2.33 8.08,-4.17 1.57,-1.77 2.36,-4.27 2.36,-7.54l0 -79.87z"/>
  <path id="_8_8" class="fil3" d="M5354.78 4671.79l0 -187.87c0,-3.28 -0.78,-5.77 -2.3,-7.49 -1.52,-1.72 -4.21,-3.17 -8.14,-4.22l0 -5.33 70.03 0 0 5.33c-3.93,1 -6.62,2.33 -8.14,4.17 -1.51,1.77 -2.3,4.27 -2.3,7.54l0 187.87c0,3.38 0.79,5.94 2.36,7.71 1.57,1.83 4.26,3.17 8.08,4.17l0 5.33 -70.03 0 0 -5.33c3.93,-1.11 6.62,-2.5 8.14,-4.22 1.52,-1.72 2.3,-4.27 2.3,-7.66l0 0z"/>
  <path id="_9_9" class="fil3" d="M5509.87 4536.93l0 134.87c0,3.38 0.78,5.94 2.3,7.66 1.51,1.72 4.21,3.11 8.14,4.22l0 5.33 -65.65 0 0 -5.33c3.93,-1.11 6.62,-2.5 8.14,-4.22 1.52,-1.72 2.3,-4.27 2.3,-7.66l0 -187.87c0,-3.28 -0.78,-5.77 -2.3,-7.49 -1.52,-1.72 -4.21,-3.17 -8.14,-4.22l0 -5.33 76.15 0 0 5.33c-4.72,1.17 -7.02,3.67 -7.02,7.5 0,2.61 1.51,5.43 4.55,8.6l124.28 127.26 0 -131.65c0,-3.28 -0.79,-5.77 -2.3,-7.49 -1.52,-1.72 -4.21,-3.17 -8.14,-4.22l0 -5.33 65.65 0 0 5.33c-3.93,1.06 -6.62,2.5 -8.14,4.22 -1.51,1.72 -2.3,4.22 -2.3,7.49l0 187.87c0,3.38 0.79,5.94 2.3,7.66 1.52,1.72 4.21,3.11 8.14,4.22l0 5.33 -70.59 0 0 -5.33c4.6,-1 6.9,-3.33 6.9,-7 0,-2.16 -2.7,-5.94 -8.03,-11.37l-126.24 -128.38 -0 0.01z"/>
  <path id="_10" class="fil3" d="M3287.71 5002.63l-101.22 0 -15.26 31.36c-2.08,4.39 -3.15,7.77 -3.15,10.27 0,4.83 3.7,8.16 11.05,9.99l0 5.33 -74.23 0 0 -5.33c4.37,-0.89 7.74,-2.39 10.04,-4.55 2.3,-2.17 4.94,-6.38 7.86,-12.65l82.54 -170.5c2.63,-5.43 3.93,-9.77 3.93,-13.04 0,-4.99 -3.14,-8.55 -9.54,-10.71l0 -5.33 79.56 0 0 5.33c-6.51,1.83 -9.7,5.06 -9.7,9.6 0,3.11 1,6.72 3.08,10.71l85.4 171c3.65,7.27 6.79,12.21 9.54,14.87 2.75,2.67 6.4,4.39 11,5.28l0 5.33 -82.82 0 0 -5.33c7.24,-1.22 10.83,-4.55 10.83,-10.1 0,-2.33 -1.12,-5.72 -3.31,-10.16l-15.6 -31.36 0.01 -0zm-14.03 -30.3l-36.02 -78.42 -36.7 78.42 72.72 0 -0 0z"/>
  <path id="_11" class="fil3" d="M3457.56 4969.33l0 73.21c0,3.28 0.79,5.77 2.35,7.54 1.57,1.83 4.26,3.17 8.09,4.17l0 5.33 -70.03 0 0 -5.33c3.93,-1.11 6.62,-2.5 8.14,-4.22 1.52,-1.72 2.3,-4.22 2.3,-7.49l0 -187.87c0,-3.38 -0.78,-5.94 -2.3,-7.66 -1.52,-1.72 -4.21,-3.17 -8.14,-4.22l0 -5.33 140.11 0c16.33,0 29.29,1.11 38.89,3.28 9.59,2.17 18.07,5.88 25.42,11.2 7.57,5.5 13.46,12.77 17.78,21.76 4.26,9.32 6.4,19.2 6.4,29.58 0,14.99 -4.04,28.09 -12.18,39.41 -7.01,9.6 -16.27,16.48 -27.83,20.54 -11.56,4.05 -27.72,6.11 -48.42,6.11l-80.58 0 -0.01 -0zm0 -36.63l74.91 0c14.93,0 25.42,-1.56 31.42,-4.72 3.87,-2.06 6.96,-5.33 9.31,-9.83 2.36,-4.49 3.54,-9.43 3.54,-14.87 0,-5.27 -1.18,-10.16 -3.54,-14.65 -2.35,-4.5 -5.44,-7.77 -9.31,-9.82 -5.89,-3.17 -16.39,-4.72 -31.42,-4.72l-74.91 0 0 58.61z"/>
  <path id="_12" class="fil3" d="M3715.17 4969.33l0 73.21c0,3.28 0.79,5.77 2.35,7.54 1.57,1.83 4.26,3.17 8.08,4.17l0 5.33 -70.02 0 0 -5.33c3.93,-1.11 6.62,-2.5 8.13,-4.22 1.52,-1.72 2.3,-4.22 2.3,-7.49l0 -187.87c0,-3.38 -0.78,-5.94 -2.3,-7.66 -1.52,-1.72 -4.2,-3.17 -8.13,-4.22l0 -5.33 140.11 0c16.33,0 29.29,1.11 38.88,3.28 9.59,2.17 18.07,5.88 25.42,11.2 7.57,5.5 13.46,12.77 17.78,21.76 4.26,9.32 6.4,19.2 6.4,29.58 0,14.99 -4.04,28.09 -12.18,39.41 -7.01,9.6 -16.27,16.48 -27.83,20.54 -11.56,4.05 -27.72,6.11 -48.43,6.11l-80.57 0 -0 -0zm0 -36.63l74.91 0c14.93,0 25.42,-1.56 31.42,-4.72 3.87,-2.06 6.96,-5.33 9.31,-9.83 2.36,-4.49 3.54,-9.43 3.54,-14.87 0,-5.27 -1.18,-10.16 -3.54,-14.65 -2.35,-4.5 -5.44,-7.77 -9.31,-9.82 -5.89,-3.17 -16.38,-4.72 -31.42,-4.72l-74.91 0 0 58.61z"/>
  <path id="_13" class="fil3" d="M3972.77 5022.94l137.81 0c3.43,0 6,-0.78 7.74,-2.28 1.74,-1.5 3.2,-4.16 4.26,-8.05l5.39 0 0 57.28 -5.39 0c-1.07,-3.89 -2.53,-6.55 -4.26,-8.05 -1.73,-1.5 -4.32,-2.28 -7.74,-2.28l-197.4 0 0 -5.33c3.93,-1.11 6.62,-2.5 8.13,-4.22 1.52,-1.72 2.3,-4.27 2.3,-7.66l0 -187.71c0,-3.38 -0.78,-5.94 -2.3,-7.66 -1.52,-1.72 -4.2,-3.17 -8.13,-4.22l0 -5.33 70.02 0 0 5.33c-3.93,1 -6.62,2.33 -8.13,4.17 -1.52,1.77 -2.3,4.33 -2.3,7.71l0 168.28 0.01 0z"/>
  <path id="_14" class="fil3" d="M4161.81 5042.37l0 -187.87c0,-3.28 -0.79,-5.77 -2.3,-7.49 -1.52,-1.72 -4.2,-3.17 -8.13,-4.22l0 -5.33 70.02 0 0 5.33c-3.93,1 -6.62,2.33 -8.13,4.17 -1.52,1.77 -2.3,4.27 -2.3,7.54l0 187.87c0,3.38 0.79,5.94 2.36,7.71 1.57,1.83 4.26,3.17 8.08,4.17l0 5.33 -70.02 0 0 -5.33c3.93,-1.11 6.62,-2.5 8.13,-4.22 1.52,-1.72 2.3,-4.27 2.3,-7.66l0 0z"/>
  <path id="_15" class="fil3" d="M4321.27 4962l0 60.94 144.04 0c3.31,0 5.83,-0.78 7.57,-2.28 1.74,-1.5 3.2,-4.16 4.26,-8.05l5.39 0 0 57.28 -5.39 0c-1.07,-3.89 -2.52,-6.55 -4.26,-8.05 -1.74,-1.5 -4.26,-2.28 -7.57,-2.28l-203.63 0 0 -5.33c3.93,-1.11 6.62,-2.5 8.14,-4.22 1.52,-1.72 2.3,-4.27 2.3,-7.66l0 -187.71c0,-3.38 -0.78,-5.94 -2.3,-7.66 -1.52,-1.72 -4.21,-3.17 -8.14,-4.22l0 -5.33 199.59 0c3.31,0 5.83,-0.78 7.57,-2.28 1.74,-1.56 3.2,-4.22 4.26,-8.05l5.38 0 0 57.28 -5.38 0c-1.07,-3.82 -2.52,-6.49 -4.26,-8.05 -1.74,-1.5 -4.26,-2.28 -7.52,-2.28l-140.05 0 0 52.61 90.9 0c3.25,0 5.78,-0.78 7.52,-2.28 1.74,-1.5 3.2,-4.16 4.26,-8.05l5.39 0 0 55.95 -5.39 0c-1.07,-3.77 -2.52,-6.44 -4.26,-7.99 -1.74,-1.55 -4.26,-2.33 -7.52,-2.33l-90.9 0 -0 -0z"/>
  <path id="_16" class="fil3" d="M4527.93 5042.37l0 -187.71c0,-3.38 -0.78,-5.94 -2.3,-7.66 -1.52,-1.72 -4.21,-3.17 -8.14,-4.22l0 -5.33 125.19 0c27.44,0 48.48,3.11 63.18,9.27 21.1,8.99 36.64,23.86 46.74,44.57 8.03,16.32 12.01,35.35 12.01,57.11 0,38.3 -11.9,67.49 -35.69,87.58 -9.98,8.43 -21.66,14.48 -35.07,18.15 -13.36,3.61 -30.41,5.44 -51.17,5.44l-125.19 0 0 -5.33c3.93,-1.11 6.62,-2.5 8.14,-4.22 1.52,-1.72 2.3,-4.27 2.3,-7.66l-0 0zm49.15 -19.43l61.61 0c19.64,0 34.39,-2.67 44.27,-7.99 21.21,-11.38 31.81,-33.52 31.81,-66.55 0,-23.81 -5.72,-42.12 -17.12,-54.78 -6.4,-7.05 -14.08,-12.1 -23.06,-15.04 -9.04,-3 -20.98,-4.5 -35.91,-4.5l-61.61 0 0 148.86 0 0z"/>
  <path id="_17" class="fil3" d="M5092.69 4856.11l-26.77 52.23 -4.6 -2.61c0.11,-1.06 0.17,-1.95 0.17,-2.61 0,-3.66 -3.2,-7.66 -9.54,-11.88 -19.53,-13.43 -42.42,-20.14 -68.74,-20.14 -11.61,0 -21.89,1.39 -30.8,4.22 -6.46,2.22 -11.68,5.44 -15.71,9.83 -3.98,4.33 -6,9.04 -6,14.15 0,8.38 5.11,14.1 15.26,17.1 5.28,1.56 16.56,3.17 33.89,4.94l25.81 2.61c15.31,1.61 27.77,3.82 37.26,6.66 9.48,2.83 17.85,6.77 25.19,11.88 7.46,5.33 13.36,12.32 17.68,20.98 4.32,8.71 6.51,17.98 6.51,27.86 0,15.6 -5.11,29.53 -15.26,41.68 -9.2,11.05 -23.51,19.26 -42.93,24.53 -14.48,4.05 -29.96,6.05 -46.52,6.05 -29.69,0 -58.98,-7.05 -87.93,-21.09 -6.11,-2.83 -9.76,-4.22 -11,-4.22 -1.4,0 -3.65,1.22 -6.73,3.55l-4.77 -2.39 24.35 -54.45 4.77 2.28c0,0.94 0,1.67 0,2.11 0,4.89 2.36,9.38 7.02,13.49 7.13,6.27 18.18,11.7 33.05,16.26 14.93,4.55 29.06,6.83 42.42,6.83 14.59,0 27.04,-2.44 37.31,-7.33 5.72,-2.72 10.27,-6.33 13.64,-10.82 3.43,-4.5 5.11,-9.22 5.11,-14.09 0,-7.38 -3.98,-12.65 -12.01,-15.82 -5.61,-2.17 -16.89,-4.16 -33.9,-6l-25.36 -2.61c-16.94,-1.77 -29.01,-3.44 -36.02,-4.99 -7.02,-1.56 -14.02,-4.11 -21.04,-7.61 -9.98,-4.89 -17.84,-12.21 -23.51,-21.98 -5.16,-8.82 -7.74,-18.93 -7.74,-30.3 0,-18.81 6.51,-34.35 19.58,-46.62 17.12,-16.21 42.81,-24.31 77.09,-24.31 14.31,0 27.72,1.44 40.06,4.33 12.4,2.89 27.83,8.16 46.4,15.87 6.34,2.5 10.21,3.72 11.67,3.72 2.3,0 4.94,-1.22 8.03,-3.72l4.6 2.44 0.01 -0z"/>
  <path id="_18" class="fil3" d="M5343.84 4983.49l31.31 46.29 -4.26 2.94c-3.09,-2.83 -5.61,-4.22 -7.57,-4.22 -1.97,0 -7.52,2.55 -16.61,7.77 -18.85,10.71 -34.74,17.98 -47.65,21.7 -12.9,3.72 -28.22,5.61 -46.02,5.61 -35.41,0 -64.47,-8.33 -87.2,-24.92 -13.36,-9.66 -23.91,-21.65 -31.59,-35.97 -8.87,-16.42 -13.3,-34.46 -13.3,-54.28 0,-26.92 7.96,-50.28 23.84,-70.15 23.91,-29.86 60.04,-44.79 108.41,-44.79 17.78,0 33.05,1.83 45.78,5.56 12.68,3.66 28.62,10.93 47.7,21.75 9.09,5.11 14.64,7.61 16.61,7.61 1.97,0 4.49,-1.39 7.57,-4.22l4.26 2.94 -31.31 46.34 -4.43 -2.94c0.22,-1.72 0.34,-3.17 0.34,-4.39 0,-3.11 -1.35,-6.05 -4.1,-8.82 -2.74,-2.78 -7.63,-6.11 -14.7,-9.99 -19.41,-10.82 -40.01,-16.2 -61.72,-16.2 -25.7,0 -46.18,6.38 -61.44,19.09 -18.02,14.87 -26.99,34.3 -26.99,58.33 0,24.03 8.98,43.46 26.99,58.33 15.26,12.71 35.74,19.09 61.44,19.09 21.72,0 42.31,-5.43 61.72,-16.26 7.06,-3.89 11.95,-7.22 14.7,-9.99 2.75,-2.78 4.1,-5.72 4.1,-8.88 0,-1.17 -0.12,-2.61 -0.34,-4.22l4.43 -3.11 0.01 0z"/>
  <path id="_19" class="fil3" d="M5419.2 5042.37l0 -187.87c0,-3.28 -0.78,-5.77 -2.3,-7.49 -1.52,-1.72 -4.21,-3.17 -8.14,-4.22l0 -5.33 70.03 0 0 5.33c-3.93,1 -6.62,2.33 -8.14,4.17 -1.51,1.77 -2.3,4.27 -2.3,7.54l0 187.87c0,3.38 0.79,5.94 2.35,7.71 1.57,1.83 4.26,3.17 8.09,4.17l0 5.33 -70.03 0 0 -5.33c3.93,-1.11 6.62,-2.5 8.14,-4.22 1.52,-1.72 2.3,-4.27 2.3,-7.66l-0 0z"/>
  <path id="_20" class="fil3" d="M5578.67 4962l0 60.94 144.04 0c3.31,0 5.83,-0.78 7.57,-2.28 1.73,-1.5 3.19,-4.16 4.26,-8.05l5.39 0 0 57.28 -5.39 0c-1.07,-3.89 -2.52,-6.55 -4.26,-8.05 -1.74,-1.5 -4.26,-2.28 -7.57,-2.28l-203.63 0 0 -5.33c3.93,-1.11 6.62,-2.5 8.14,-4.22 1.52,-1.72 2.3,-4.27 2.3,-7.66l0 -187.71c0,-3.38 -0.78,-5.94 -2.3,-7.66 -1.52,-1.72 -4.21,-3.17 -8.14,-4.22l0 -5.33 199.59 0c3.31,0 5.84,-0.78 7.57,-2.28 1.74,-1.56 3.2,-4.22 4.26,-8.05l5.39 0 0 57.28 -5.39 0c-1.07,-3.82 -2.52,-6.49 -4.26,-8.05 -1.73,-1.5 -4.26,-2.28 -7.52,-2.28l-140.05 0 0 52.61 90.9 0c3.25,0 5.78,-0.78 7.52,-2.28 1.73,-1.5 3.19,-4.16 4.26,-8.05l5.39 0 0 55.95 -5.39 0c-1.07,-3.77 -2.52,-6.44 -4.26,-7.99 -1.74,-1.55 -4.26,-2.33 -7.52,-2.33l-90.9 0 -0 -0z"/>
  <path id="_21" class="fil3" d="M5830.1 4907.5l0 134.87c0,3.38 0.79,5.94 2.3,7.66 1.51,1.72 4.2,3.11 8.13,4.22l0 5.33 -65.65 0 0 -5.33c3.93,-1.11 6.62,-2.5 8.13,-4.22 1.52,-1.72 2.3,-4.27 2.3,-7.66l0 -187.87c0,-3.28 -0.79,-5.77 -2.3,-7.49 -1.52,-1.72 -4.2,-3.17 -8.13,-4.22l0 -5.33 76.14 0 0 5.33c-4.71,1.17 -7.01,3.67 -7.01,7.5 0,2.61 1.51,5.43 4.54,8.6l124.29 127.26 0 -131.65c0,-3.28 -0.79,-5.77 -2.3,-7.49 -1.52,-1.72 -4.2,-3.17 -8.13,-4.22l0 -5.33 65.65 0 0 5.33c-3.93,1.06 -6.62,2.5 -8.13,4.22 -1.51,1.72 -2.3,4.22 -2.3,7.49l0 187.87c0,3.38 0.79,5.94 2.3,7.66 1.52,1.72 4.21,3.11 8.13,4.22l0 5.33 -70.59 0 0 -5.33c4.6,-1 6.9,-3.33 6.9,-7 0,-2.16 -2.7,-5.94 -8.03,-11.37l-126.24 -128.38 0 0.01z"/>
  <path id="_22" class="fil3" d="M6284.32 4983.49l31.31 46.29 -4.26 2.94c-3.09,-2.83 -5.61,-4.22 -7.57,-4.22 -1.96,0 -7.52,2.55 -16.61,7.77 -18.85,10.71 -34.74,17.98 -47.65,21.7 -12.9,3.72 -28.22,5.61 -46.02,5.61 -35.4,0 -64.47,-8.33 -87.2,-24.92 -13.35,-9.66 -23.91,-21.65 -31.59,-35.97 -8.87,-16.42 -13.3,-34.46 -13.3,-54.28 0,-26.92 7.96,-50.28 23.84,-70.15 23.91,-29.86 60.04,-44.79 108.41,-44.79 17.78,0 33.05,1.83 45.78,5.56 12.68,3.66 28.62,10.93 47.7,21.75 9.09,5.11 14.65,7.61 16.61,7.61 1.97,0 4.49,-1.39 7.57,-4.22l4.26 2.94 -31.31 46.34 -4.43 -2.94c0.22,-1.72 0.34,-3.17 0.34,-4.39 0,-3.11 -1.35,-6.05 -4.1,-8.82 -2.75,-2.78 -7.63,-6.11 -14.7,-9.99 -19.41,-10.82 -40.01,-16.2 -61.72,-16.2 -25.7,0 -46.18,6.38 -61.44,19.09 -18.02,14.87 -26.99,34.3 -26.99,58.33 0,24.03 8.98,43.46 26.99,58.33 15.26,12.71 35.74,19.09 61.44,19.09 21.72,0 42.31,-5.43 61.72,-16.26 7.06,-3.89 11.95,-7.22 14.7,-9.99 2.75,-2.78 4.1,-5.72 4.1,-8.88 0,-1.17 -0.11,-2.61 -0.34,-4.22l4.43 -3.11 0.01 0z"/>
  <path id="_23" class="fil3" d="M6408.82 4962l0 60.94 144.04 0c3.31,0 5.83,-0.78 7.57,-2.28 1.74,-1.5 3.2,-4.16 4.26,-8.05l5.39 0 0 57.28 -5.39 0c-1.07,-3.89 -2.52,-6.55 -4.26,-8.05 -1.74,-1.5 -4.26,-2.28 -7.57,-2.28l-203.63 0 0 -5.33c3.93,-1.11 6.62,-2.5 8.13,-4.22 1.52,-1.72 2.3,-4.27 2.3,-7.66l0 -187.71c0,-3.38 -0.78,-5.94 -2.3,-7.66 -1.52,-1.72 -4.21,-3.17 -8.13,-4.22l0 -5.33 199.59 0c3.31,0 5.83,-0.78 7.57,-2.28 1.74,-1.56 3.2,-4.22 4.26,-8.05l5.38 0 0 57.28 -5.38 0c-1.07,-3.82 -2.52,-6.49 -4.26,-8.05 -1.74,-1.5 -4.26,-2.28 -7.52,-2.28l-140.05 0 0 52.61 90.9 0c3.25,0 5.78,-0.78 7.52,-2.28 1.74,-1.5 3.2,-4.16 4.26,-8.05l5.39 0 0 55.95 -5.39 0c-1.07,-3.77 -2.52,-6.44 -4.26,-7.99 -1.74,-1.55 -4.26,-2.33 -7.52,-2.33l-90.9 0 -0 -0z"/>
  <path id="_24" class="fil3" d="M6813.83 4856.11l-26.77 52.23 -4.6 -2.61c0.11,-1.06 0.17,-1.95 0.17,-2.61 0,-3.66 -3.2,-7.66 -9.54,-11.88 -19.52,-13.43 -42.42,-20.14 -68.73,-20.14 -11.62,0 -21.89,1.39 -30.8,4.22 -6.46,2.22 -11.67,5.44 -15.71,9.83 -3.98,4.33 -6,9.04 -6,14.15 0,8.38 5.11,14.1 15.26,17.1 5.28,1.56 16.55,3.17 33.89,4.94l25.81 2.61c15.31,1.61 27.77,3.82 37.26,6.66 9.48,2.83 17.85,6.77 25.19,11.88 7.46,5.33 13.36,12.32 17.68,20.98 4.32,8.71 6.51,17.98 6.51,27.86 0,15.6 -5.11,29.53 -15.26,41.68 -9.2,11.05 -23.51,19.26 -42.93,24.53 -14.48,4.05 -29.96,6.05 -46.52,6.05 -29.69,0 -58.98,-7.05 -87.93,-21.09 -6.11,-2.83 -9.76,-4.22 -11,-4.22 -1.4,0 -3.65,1.22 -6.73,3.55l-4.77 -2.39 24.35 -54.45 4.77 2.28c0,0.94 0,1.67 0,2.11 0,4.89 2.36,9.38 7.01,13.49 7.13,6.27 18.18,11.7 33.05,16.26 14.93,4.55 29.06,6.83 42.42,6.83 14.59,0 27.04,-2.44 37.31,-7.33 5.72,-2.72 10.27,-6.33 13.64,-10.82 3.43,-4.5 5.11,-9.22 5.11,-14.09 0,-7.38 -3.98,-12.65 -12.01,-15.82 -5.61,-2.17 -16.89,-4.16 -33.9,-6l-25.36 -2.61c-16.94,-1.77 -29.01,-3.44 -36.02,-4.99 -7.01,-1.56 -14.02,-4.11 -21.04,-7.61 -9.98,-4.89 -17.84,-12.21 -23.51,-21.98 -5.16,-8.82 -7.74,-18.93 -7.74,-30.3 0,-18.81 6.51,-34.35 19.58,-46.62 17.12,-16.21 42.81,-24.31 77.09,-24.31 14.31,0 27.72,1.44 40.06,4.33 12.4,2.89 27.83,8.16 46.4,15.87 6.33,2.5 10.21,3.72 11.67,3.72 2.3,0 4.94,-1.22 8.03,-3.72l4.6 2.44 0 -0z"/>
  <path class="fil5" d="M4869.62 6781.1l-127.87 0 0 79.87c0,3.28 0.78,5.77 2.33,7.54 1.56,1.83 4.22,3.17 7.99,4.17l0 5.33 -69.26 0 0 -5.33c3.89,-1.11 6.55,-2.5 8.05,-4.22 1.5,-1.72 2.28,-4.22 2.28,-7.49l0 -188.04c0,-3.28 -0.78,-5.77 -2.28,-7.49 -1.5,-1.72 -4.16,-3.17 -8.05,-4.22l0 -5.33 69.26 0 0 5.33c-3.89,1 -6.55,2.33 -8.05,4.17 -1.5,1.77 -2.28,4.27 -2.28,7.54l0 71.54 127.87 0 0 -71.54c0,-3.28 -0.78,-5.77 -2.28,-7.54 -1.5,-1.83 -4.16,-3.17 -8.05,-4.17l0 -5.33 69.26 0 0 5.33c-3.89,1.06 -6.55,2.5 -8.05,4.22 -1.5,1.72 -2.28,4.22 -2.28,7.49l0 188.04c0,3.28 0.78,5.77 2.28,7.49 1.5,1.72 4.16,3.11 8.05,4.22l0 5.33 -69.26 0 0 -5.33c3.78,-1 6.44,-2.33 7.99,-4.17 1.56,-1.77 2.33,-4.27 2.33,-7.54l0 -79.87 0.01 0z"/>
  <path id="_1_10" class="fil5" d="M5194.25 6673.09l0 124.49c0,23.53 -4.33,41.13 -12.98,52.84 -15.6,21.04 -47.84,31.58 -96.74,31.58 -35.35,0 -62.38,-5.72 -81.14,-17.1 -10.93,-6.6 -18.53,-15.59 -22.76,-26.97 -4.11,-11.33 -6.16,-24.75 -6.16,-40.35l0 -124.49c0,-3.38 -0.78,-5.94 -2.28,-7.66 -1.5,-1.72 -4.16,-3.11 -8.05,-4.22l0 -5.33 69.27 0 0 5.33c-3.83,1 -6.5,2.39 -8.05,4.17 -1.5,1.77 -2.28,4.33 -2.28,7.71l0 110.89c0,12.77 0.72,22.25 2.11,28.42 1.39,6.11 4.05,11.26 7.94,15.37 10.38,11.04 28.14,16.59 53.22,16.59 25.2,0 43.02,-5.56 53.39,-16.59 3.77,-4.11 6.38,-9.27 7.77,-15.37 1.39,-6.16 2.11,-15.65 2.11,-28.42l0 -110.89c0,-3.38 -0.78,-5.88 -2.28,-7.66 -1.5,-1.72 -4.16,-3.11 -8.05,-4.22l0 -5.33 65.26 0 0 5.33c-3.89,1.11 -6.55,2.5 -8.05,4.22 -1.5,1.72 -2.28,4.27 -2.28,7.66l0.01 -0z"/>
  <path id="_2_11" class="fil5" d="M5437.89 6761.57c24.92,9.44 37.41,26.92 37.41,52.45 0,20.31 -7.27,36.19 -21.81,47.73 -7.32,5.72 -15.87,9.88 -25.58,12.43 -9.72,2.56 -21.7,3.83 -36.02,3.83l-151.69 0 0 -5.33c3.89,-1.11 6.55,-2.5 8.05,-4.22 1.5,-1.72 2.28,-4.27 2.28,-7.66l0 -187.71c0,-3.38 -0.78,-5.94 -2.28,-7.66 -1.5,-1.72 -4.16,-3.17 -8.05,-4.22l0 -5.33 150.24 0c14.37,0 25.98,1.11 34.8,3.28 8.77,2.17 16.43,5.83 23.09,11.04 13.1,10.27 19.65,25.14 19.65,44.51 0,21.7 -10.05,37.3 -30.08,46.84l0 0zm-138.75 -17.43l84.97 0c12.87,0 21.87,-1.89 26.97,-5.66 5.72,-4.33 8.6,-11.05 8.6,-20.15 0,-9.32 -2.72,-15.93 -8.1,-19.87 -5.43,-3.94 -14.6,-5.94 -27.47,-5.94l-84.97 0 0 51.62 0 0zm0 97.24l82.31 0c15.26,0 26.31,-2.11 33.02,-6.33 7.72,-4.94 11.54,-12.87 11.54,-23.98 0,-10.99 -3.82,-18.93 -11.54,-23.98 -6.6,-4.22 -17.65,-6.33 -33.02,-6.33l-82.31 0 0 60.61 0 -0z"/>
 </g>
</svg>
